<svg width="15" height="15" viewBox="0 0 15 15" fill="none" xmlns="http://www.w3.org/2000/svg">
<path d="M6.25 5.625V8.75C6.25 9.08152 6.3817 9.39946 6.61612 9.63388C6.85054 9.8683 7.16848 10 7.5 10C7.83152 10 8.14946 9.8683 8.38388 9.63388C8.6183 9.39946 8.75 9.08152 8.75 8.75V4.375C8.75 3.71196 8.48661 3.07607 8.01777 2.60723C7.54893 2.13839 6.91304 1.875 6.25 1.875C5.58696 1.875 4.95107 2.13839 4.48223 2.60723C4.01339 3.07607 3.75 3.71196 3.75 4.375V9.375C3.75 10.3696 4.14509 11.3234 4.84835 12.0267C5.55161 12.7299 6.50544 13.125 7.5 13.125C8.49456 13.125 9.44839 12.7299 10.1517 12.0267C10.8549 11.3234 11.25 10.3696 11.25 9.375V3.125" stroke="#008CD9" stroke-width="1.2" stroke-linecap="round" stroke-linejoin="round"/>
</svg>
