<svg width="16" height="16" viewBox="0 0 16 16" fill="none" xmlns="http://www.w3.org/2000/svg">
<path d="M1.33331 12.6667C1.33331 13.8 2.19998 14.6667 3.33331 14.6667H12.6666C13.8 14.6667 14.6666 13.8 14.6666 12.6667V7.33337H1.33331V12.6667ZM12.6666 2.66671H11.3333V2.00004C11.3333 1.60004 11.0666 1.33337 10.6666 1.33337C10.2666 1.33337 9.99998 1.60004 9.99998 2.00004V2.66671H5.99998V2.00004C5.99998 1.60004 5.73331 1.33337 5.33331 1.33337C4.93331 1.33337 4.66665 1.60004 4.66665 2.00004V2.66671H3.33331C2.19998 2.66671 1.33331 3.53337 1.33331 4.66671V6.00004H14.6666V4.66671C14.6666 3.53337 13.8 2.66671 12.6666 2.66671Z" fill="#008CD9"/>
</svg>
