<svg width="38" height="38" viewBox="0 0 38 38" fill="none" xmlns="http://www.w3.org/2000/svg">
<rect x="0.5" y="0.5" width="37" height="37" rx="7.5" fill="#008CD9" fill-opacity="0.07"/>
<rect x="0.5" y="0.5" width="37" height="37" rx="7.5" stroke="#008CD9"/>
<path d="M12.001 12.4999C12.001 12.3673 12.0537 12.2401 12.1474 12.1464C12.2412 12.0527 12.3683 12 12.5009 12H12.9388C13.6656 12 14.0834 12.4729 14.3254 12.9447C14.4903 13.2676 14.6093 13.6615 14.7083 14.0034H25.0006C25.155 14.0035 25.3074 14.0393 25.4457 14.1081C25.584 14.177 25.7045 14.2769 25.7976 14.4001C25.8908 14.5233 25.9542 14.6664 25.9828 14.8182C26.0113 14.9701 26.0043 15.1264 25.9623 15.2751L24.4667 20.5486C24.3477 20.9669 24.0956 21.3351 23.7485 21.5973C23.4013 21.8594 22.9782 22.0012 22.5432 22.0011H17.4656C17.0269 22.0013 16.6005 21.8572 16.2518 21.5911C15.9031 21.325 15.6516 20.9517 15.5361 20.5286L14.8942 18.1742C14.8906 18.1637 14.8872 18.153 14.8842 18.1422L13.8535 14.6462L13.7535 14.3093C13.6536 13.9634 13.5656 13.6575 13.4336 13.4006C13.2747 13.0907 13.1287 13.0007 12.9378 13.0007H12.4999C12.3673 13.0007 12.2402 12.9481 12.1464 12.8543C12.0527 12.7606 12 12.6334 12 12.5009M17.5025 26C17.9003 26 18.2817 25.842 18.5629 25.5608C18.8442 25.2796 19.0021 24.8981 19.0021 24.5004C19.0021 24.1027 18.8442 23.7213 18.5629 23.4401C18.2817 23.1588 17.9003 23.0009 17.5025 23.0009C17.1048 23.0009 16.7234 23.1588 16.4422 23.4401C16.1609 23.7213 16.0029 24.1027 16.0029 24.5004C16.0029 24.8981 16.1609 25.2796 16.4422 25.5608C16.7234 25.842 17.1048 26 17.5025 26ZM22.5012 26C22.8989 26 23.2804 25.842 23.5616 25.5608C23.8428 25.2796 24.0008 24.8981 24.0008 24.5004C24.0008 24.1027 23.8428 23.7213 23.5616 23.4401C23.2804 23.1588 22.8989 23.0009 22.5012 23.0009C22.1035 23.0009 21.7221 23.1588 21.4408 23.4401C21.1596 23.7213 21.0016 24.1027 21.0016 24.5004C21.0016 24.8981 21.1596 25.2796 21.4408 25.5608C21.7221 25.842 22.1035 26 22.5012 26Z" fill="#008CD9"/>
</svg>
