<svg width="38" height="38" viewBox="0 0 38 38" fill="none" xmlns="http://www.w3.org/2000/svg">
<rect x="0.5" y="0.5" width="37" height="37" rx="7.5" fill="#FEC000" fill-opacity="0.07"/>
<rect x="0.5" y="0.5" width="37" height="37" rx="7.5" stroke="#FEC000"/>
<path fill-rule="evenodd" clip-rule="evenodd" d="M16.8456 23.0521C16.5911 23.0521 16.3424 23.1275 16.1308 23.2689C15.9192 23.4103 15.7543 23.6112 15.6569 23.8463C15.5596 24.0814 15.5341 24.3401 15.5837 24.5897C15.6334 24.8392 15.7559 25.0685 15.9358 25.2484C16.1158 25.4283 16.345 25.5509 16.5946 25.6005C16.8442 25.6502 17.1028 25.6247 17.3379 25.5273C17.573 25.4299 17.774 25.265 17.9153 25.0534C18.0567 24.8419 18.1322 24.5931 18.1322 24.3387C18.132 23.9975 17.9964 23.6703 17.7552 23.4291C17.5139 23.1878 17.1868 23.0522 16.8456 23.0521ZM21.5285 23.0521C21.2741 23.0521 21.0253 23.1275 20.8137 23.2689C20.6022 23.4103 20.4373 23.6112 20.3399 23.8463C20.2425 24.0814 20.217 24.3401 20.2667 24.5897C20.3163 24.8392 20.4388 25.0685 20.6188 25.2484C20.7987 25.4283 21.028 25.5509 21.2775 25.6005C21.5271 25.6502 21.7858 25.6247 22.0209 25.5273C22.256 25.4299 22.4569 25.265 22.5983 25.0534C22.7397 24.8419 22.8151 24.5931 22.8151 24.3387C22.815 23.9975 22.6794 23.6703 22.4381 23.4291C22.1969 23.1878 21.8697 23.0522 21.5285 23.0521ZM13.9011 13.0747C13.9011 13.0747 14.4646 18.8311 14.6798 20.874C14.725 21.3041 14.9278 21.7022 15.2492 21.9915C15.5705 22.2808 15.9876 22.441 16.42 22.441H22.3759C22.7479 22.4409 23.1103 22.3223 23.4103 22.1023C23.7104 21.8824 23.9326 21.5725 24.0446 21.2178C24.6606 19.2669 25.9836 15.0781 25.9836 15.0781C26.0002 15.0257 26.0042 14.97 25.9953 14.9158C25.9864 14.8615 25.9648 14.8101 25.9323 14.7657C25.8997 14.7213 25.8572 14.6853 25.8081 14.6604C25.759 14.6356 25.7047 14.6227 25.6497 14.6228H14.7323L14.572 12.6957C14.5646 12.6082 14.5247 12.5267 14.46 12.4673C14.3954 12.4078 14.3109 12.3748 14.2231 12.3748H12.3499C12.2571 12.3748 12.168 12.4116 12.1024 12.4773C12.0368 12.5429 11.9999 12.6319 11.9999 12.7248C11.9999 12.8176 12.0368 12.9066 12.1024 12.9722C12.168 13.0379 12.2571 13.0748 12.3499 13.0748L13.9011 13.0747ZM19.6802 16.2069C19.2204 16.2069 18.7709 16.3433 18.3886 16.5987C18.0064 16.8542 17.7084 17.2173 17.5325 17.6421C17.3565 18.0669 17.3105 18.5343 17.4002 18.9853C17.4899 19.4363 17.7113 19.8505 18.0365 20.1756C18.3616 20.5007 18.7758 20.7222 19.2268 20.8119C19.6777 20.9016 20.1452 20.8556 20.57 20.6796C20.9948 20.5037 21.3579 20.2057 21.6133 19.8234C21.8688 19.4411 22.0052 18.9917 22.0052 18.5319C22.005 17.9153 21.76 17.3241 21.324 16.8881C20.888 16.4521 20.2968 16.2071 19.6802 16.2069ZM19.3498 17.7416L19.3302 18.5228C19.3287 18.584 19.3432 18.6446 19.3724 18.6984C19.4015 18.7523 19.4443 18.7976 19.4964 18.8297L20.216 19.2732C20.2552 19.2975 20.2987 19.3138 20.3441 19.3213C20.3896 19.3287 20.436 19.3271 20.4809 19.3166C20.5257 19.306 20.568 19.2867 20.6054 19.2598C20.6427 19.2329 20.6744 19.1988 20.6986 19.1596C20.7227 19.1205 20.739 19.0769 20.7463 19.0314C20.7536 18.9859 20.7518 18.9395 20.7411 18.8947C20.7304 18.8499 20.711 18.8076 20.684 18.7704C20.6569 18.7331 20.6228 18.7015 20.5835 18.6775L20.0351 18.3394L20.0498 17.7591C20.0509 17.7131 20.043 17.6674 20.0265 17.6245C20.0099 17.5816 19.9851 17.5424 19.9534 17.509C19.9218 17.4757 19.8838 17.449 19.8418 17.4303C19.7998 17.4117 19.7545 17.4015 19.7085 17.4003C19.6157 17.398 19.5257 17.4327 19.4585 17.4967C19.3912 17.5607 19.3521 17.6488 19.3498 17.7416Z" fill="#FEC000"/>
</svg>
