<svg width="18" height="18" viewBox="0 0 18 18" fill="none" xmlns="http://www.w3.org/2000/svg">
<path d="M2.69719 3.14641C2.69719 3.02706 2.7446 2.9126 2.82899 2.82821C2.91338 2.74382 3.02784 2.69641 3.14719 2.69641H3.54139C4.19569 2.69641 4.57189 3.12211 4.78969 3.54691C4.93819 3.83761 5.04529 4.19221 5.13439 4.50001H14.3999C14.539 4.50005 14.6761 4.53232 14.8006 4.59428C14.9251 4.65624 15.0336 4.74621 15.1174 4.85713C15.2013 4.96804 15.2584 5.09689 15.2841 5.23356C15.3098 5.37022 15.3035 5.51099 15.2657 5.64481L13.9193 10.3923C13.8122 10.769 13.5852 11.1004 13.2727 11.3364C12.9602 11.5724 12.5793 11.7001 12.1877 11.7H7.61659C7.22174 11.7001 6.83779 11.5704 6.52391 11.3309C6.21003 11.0913 5.98363 10.7552 5.87959 10.3743L5.30179 8.25481C5.29848 8.24531 5.29547 8.23571 5.29279 8.22601L4.36489 5.07871L4.27489 4.77541C4.18489 4.46401 4.10569 4.18861 3.98689 3.95731C3.84379 3.67831 3.71239 3.59731 3.54049 3.59731H3.14629C3.02694 3.59731 2.91248 3.5499 2.82809 3.46551C2.7437 3.38112 2.69629 3.26666 2.69629 3.14731M7.64989 15.3C8.00793 15.3 8.35131 15.1578 8.60448 14.9046C8.85766 14.6514 8.99989 14.3081 8.99989 13.95C8.99989 13.592 8.85766 13.2486 8.60448 12.9954C8.35131 12.7422 8.00793 12.6 7.64989 12.6C7.29185 12.6 6.94847 12.7422 6.69529 12.9954C6.44212 13.2486 6.29989 13.592 6.29989 13.95C6.29989 14.3081 6.44212 14.6514 6.69529 14.9046C6.94847 15.1578 7.29185 15.3 7.64989 15.3ZM12.1499 15.3C12.5079 15.3 12.8513 15.1578 13.1045 14.9046C13.3577 14.6514 13.4999 14.3081 13.4999 13.95C13.4999 13.592 13.3577 13.2486 13.1045 12.9954C12.8513 12.7422 12.5079 12.6 12.1499 12.6C11.7918 12.6 11.4485 12.7422 11.1953 12.9954C10.9421 13.2486 10.7999 13.592 10.7999 13.95C10.7999 14.3081 10.9421 14.6514 11.1953 14.9046C11.4485 15.1578 11.7918 15.3 12.1499 15.3Z" fill="#7F7F7F"/>
</svg>
