<svg width="38" height="38" viewBox="0 0 38 38" fill="none" xmlns="http://www.w3.org/2000/svg">
<rect x="0.5" y="0.5" width="37" height="37" rx="7.5" fill="#2EB86E" fill-opacity="0.1"/>
<rect x="0.5" y="0.5" width="37" height="37" rx="7.5" stroke="#2EB86E"/>
<path d="M19 12C15.1532 12 12 15.1321 12 19C12 22.8679 15.1321 26 19 26C22.8679 26 26 22.8679 26 19C26 15.1321 22.8468 12 19 12ZM19 25.7688C15.2583 25.7688 12.2102 22.7207 12.2102 18.979C12.2102 15.2372 15.2583 12.1892 19 12.1892C22.7417 12.1892 25.7898 15.2372 25.7898 18.979C25.7898 22.7207 22.7417 25.7688 19 25.7688ZM19 12.4204C15.3634 12.4204 12.4204 15.3634 12.4204 19C12.4204 22.6366 15.3634 25.5796 19 25.5796C22.6366 25.5796 25.5796 22.6366 25.5796 19C25.5796 15.3634 22.6366 12.4204 19 12.4204ZM22.027 17.5285L18.5796 21.0811C18.4955 21.1652 18.3694 21.2282 18.2432 21.2282C18.1381 21.2282 18.012 21.1862 17.9279 21.1021L15.994 19.3363C15.8048 19.1682 15.7838 18.8739 15.973 18.6847C16.1411 18.4955 16.4354 18.4745 16.6246 18.6637L18.2222 20.1351L21.3544 16.9189C21.5435 16.7297 21.8378 16.7297 22.006 16.8979C22.1952 17.045 22.1952 17.3393 22.027 17.5285Z" fill="#2EB86E"/>
</svg>
