<svg width="15" height="17" viewBox="0 0 15 17" fill="none" xmlns="http://www.w3.org/2000/svg">
<path d="M2.30432 5.01551C2.24465 4.95537 2.17446 4.90835 2.09775 4.87714C2.02105 4.84593 1.93933 4.83114 1.85726 4.83361C1.7752 4.83609 1.6944 4.85578 1.61947 4.89157C1.54454 4.92735 1.47695 4.97853 1.42057 5.04218C1.36418 5.10583 1.3201 5.1807 1.29084 5.26252C1.26158 5.34434 1.24771 5.4315 1.25004 5.51903C1.25236 5.60657 1.27082 5.69276 1.30437 5.77268C1.33792 5.85261 1.3859 5.9247 1.44557 5.98485L7.07057 11.6515C7.18661 11.7685 7.34025 11.8337 7.49994 11.8337C7.65964 11.8337 7.81327 11.7685 7.92932 11.6515L13.5549 5.98485C13.6159 5.9251 13.6652 5.85302 13.6998 5.7728C13.7344 5.69258 13.7538 5.60582 13.7567 5.51756C13.7597 5.4293 13.7461 5.34129 13.7169 5.25865C13.6877 5.17602 13.6434 5.10039 13.5865 5.03618C13.5297 4.97197 13.4615 4.92044 13.3858 4.8846C13.3101 4.84875 13.2285 4.8293 13.1457 4.82738C13.063 4.82546 12.9806 4.8411 12.9036 4.8734C12.8265 4.90569 12.7562 4.954 12.6968 5.01551L7.49994 10.2502L2.30432 5.01551Z" fill="#7F7F7F"/>
</svg>
