<svg width="12" height="12" viewBox="0 0 12 12" fill="none" xmlns="http://www.w3.org/2000/svg">
<path d="M3.64121 10.1564C3.5961 10.2041 3.56084 10.2603 3.53743 10.3216C3.51402 10.383 3.50293 10.4484 3.50479 10.514C3.50664 10.5797 3.52141 10.6443 3.54825 10.7043C3.57509 10.7642 3.61348 10.8183 3.66121 10.8634C3.70895 10.9085 3.7651 10.9438 3.82647 10.9672C3.88783 10.9906 3.9532 11.0017 4.01885 10.9998C4.08451 10.9979 4.14915 10.9832 4.20909 10.9563C4.26903 10.9295 4.3231 10.8911 4.36821 10.8434L8.61821 6.34338C8.70598 6.25054 8.75488 6.12763 8.75488 5.99988C8.75488 5.87212 8.70598 5.74921 8.61821 5.65637L4.36821 1.15587C4.3234 1.10709 4.26934 1.0677 4.20918 1.03999C4.14902 1.01228 4.08395 0.996797 4.01775 0.994445C3.95155 0.992094 3.88555 1.00292 3.82357 1.02629C3.76159 1.04966 3.70487 1.08512 3.65671 1.1306C3.60855 1.17607 3.56991 1.23067 3.54303 1.2912C3.51614 1.35174 3.50156 1.41702 3.50011 1.48324C3.49867 1.54947 3.5104 1.61532 3.53462 1.67697C3.55885 1.73862 3.59508 1.79484 3.64121 1.84237L7.56721 5.99988L3.64121 10.1564Z" fill="#008CD9"/>
</svg>
