<svg width="23" height="24" viewBox="0 0 23 24" fill="none" xmlns="http://www.w3.org/2000/svg">
<path d="M11.5 2.65625C9.65198 2.65625 7.84547 3.20425 6.30889 4.23096C4.77232 5.25766 3.57471 6.71695 2.8675 8.4243C2.1603 10.1316 1.97526 12.0104 2.33579 13.8229C2.69632 15.6354 3.58623 17.3003 4.89298 18.607C6.19972 19.9138 7.86462 20.8037 9.67713 21.1642C11.4896 21.5247 13.3684 21.3397 15.0757 20.6325C16.783 19.9253 18.2423 18.7277 19.269 17.1911C20.2958 15.6545 20.8438 13.848 20.8438 12C20.8411 9.52269 19.8559 7.14759 18.1041 5.39586C16.3524 3.64413 13.9773 2.65887 11.5 2.65625ZM11.5 19.9062C9.9363 19.9062 8.4077 19.4426 7.10753 18.5738C5.80735 17.7051 4.79399 16.4703 4.19558 15.0256C3.59718 13.5809 3.44061 11.9912 3.74567 10.4576C4.05073 8.9239 4.80373 7.51515 5.90944 6.40944C7.01515 5.30373 8.42391 4.55073 9.95757 4.24567C11.4912 3.9406 13.0809 4.09717 14.5256 4.69558C15.9703 5.29398 17.2051 6.30735 18.0738 7.60752C18.9426 8.9077 19.4063 10.4363 19.4063 12C19.4039 14.0961 18.5701 16.1057 17.0879 17.5879C15.6057 19.0701 13.5961 19.9039 11.5 19.9062ZM8.625 12C8.625 12.6034 8.81486 13.1915 9.16768 13.681C9.5205 14.1706 10.0184 14.5366 10.5908 14.7275C11.1633 14.9183 11.7813 14.9241 12.3572 14.7442C12.9332 14.5643 13.438 14.2077 13.8 13.725C13.9145 13.5725 14.0849 13.4717 14.2737 13.4449C14.4625 13.418 14.6542 13.4672 14.8067 13.5817C14.9592 13.6962 15.06 13.8666 15.0868 14.0554C15.1137 14.2442 15.0645 14.4359 14.95 14.5884C14.4068 15.3123 13.6496 15.8469 12.7857 16.1166C11.9218 16.3863 10.995 16.3773 10.1364 16.091C9.27787 15.8047 8.53116 15.2556 8.00203 14.5213C7.4729 13.7871 7.18818 12.905 7.18818 12C7.18818 11.095 7.4729 10.2129 8.00203 9.47866C8.53116 8.74444 9.27787 8.19529 10.1364 7.90898C10.995 7.62268 11.9218 7.61373 12.7857 7.88341C13.6496 8.15309 14.4068 8.68773 14.95 9.4116C15.0067 9.48711 15.048 9.57305 15.0714 9.66451C15.0949 9.75596 15.1002 9.85115 15.0868 9.94463C15.0735 10.0381 15.042 10.1281 14.9939 10.2093C14.9458 10.2906 14.8822 10.3616 14.8067 10.4183C14.7312 10.475 14.6453 10.5163 14.5538 10.5397C14.4623 10.5632 14.3672 10.5685 14.2737 10.5551C14.1802 10.5418 14.0903 10.5102 14.009 10.4622C13.9277 10.4141 13.8567 10.3505 13.8 10.275C13.438 9.79227 12.9332 9.43569 12.3572 9.25577C11.7813 9.07586 11.1633 9.08172 10.5908 9.27254C10.0184 9.46335 9.5205 9.82944 9.16768 10.319C8.81486 10.8085 8.625 11.3966 8.625 12Z" fill="#7F7F7F"/>
</svg>
