<svg width="18" height="18" viewBox="0 0 18 18" fill="none" xmlns="http://www.w3.org/2000/svg">
<path d="M1.5 3.75C1.5 3.15326 1.73705 2.58097 2.15901 2.15901C2.58097 1.73705 3.15326 1.5 3.75 1.5H12C12.5967 1.5 13.169 1.73705 13.591 2.15901C14.0129 2.58097 14.25 3.15326 14.25 3.75V7.5H7.5C6.70435 7.5 5.94129 7.81607 5.37868 8.37868C4.81607 8.94129 4.5 9.70435 4.5 10.5V14.25C4.5 14.5087 4.533 14.76 4.5945 15H3.75C3.15326 15 2.58097 14.7629 2.15901 14.341C1.73705 13.919 1.5 13.3467 1.5 12.75V3.75ZM4.3125 3C4.16332 3 4.02024 3.05926 3.91475 3.16475C3.80926 3.27024 3.75 3.41332 3.75 3.5625C3.75 3.71168 3.80926 3.85476 3.91475 3.96025C4.02024 4.06574 4.16332 4.125 4.3125 4.125H11.4375C11.5867 4.125 11.7298 4.06574 11.8352 3.96025C11.9407 3.85476 12 3.71168 12 3.5625C12 3.41332 11.9407 3.27024 11.8352 3.16475C11.7298 3.05926 11.5867 3 11.4375 3H4.3125ZM5.8125 5.25C5.66332 5.25 5.52024 5.30926 5.41475 5.41475C5.30926 5.52024 5.25 5.66332 5.25 5.8125C5.25 5.96168 5.30926 6.10476 5.41475 6.21025C5.52024 6.31574 5.66332 6.375 5.8125 6.375H11.4375C11.5867 6.375 11.7298 6.31574 11.8352 6.21025C11.9407 6.10476 12 5.96168 12 5.8125C12 5.66332 11.9407 5.52024 11.8352 5.41475C11.7298 5.30926 11.5867 5.25 11.4375 5.25H5.8125ZM5.661 9.2025C5.86866 8.90787 6.14415 8.66753 6.46422 8.50175C6.78429 8.33597 7.13955 8.24962 7.5 8.25H14.25C14.6104 8.24987 14.9656 8.33633 15.2856 8.50208C15.6056 8.66784 15.8812 8.90805 16.089 9.2025L10.875 12.462L5.661 9.2025ZM5.2605 10.2795C5.253 10.3523 5.25 10.425 5.25 10.5V14.25C5.25 14.8467 5.48705 15.419 5.90901 15.841C6.33097 16.2629 6.90326 16.5 7.5 16.5H14.25C14.8467 16.5 15.419 16.2629 15.841 15.841C16.2629 15.419 16.5 14.8467 16.5 14.25V10.5C16.5 10.425 16.4963 10.3523 16.4895 10.2795L11.1735 13.602C11.084 13.658 10.9806 13.6877 10.875 13.6877C10.7694 13.6877 10.666 13.658 10.5765 13.602L5.2605 10.2795Z" fill="#7F7F7F"/>
</svg>
