<svg width="30" height="30" viewBox="0 0 30 30" fill="none" xmlns="http://www.w3.org/2000/svg">
<circle cx="15" cy="15" r="14.5" stroke="#008CD9"/>
<path d="M18.9375 10.875H11.0625C10.7145 10.8754 10.3809 11.0138 10.1348 11.2598C9.88877 11.5059 9.75037 11.8395 9.75 12.1875V17.8125C9.75037 18.1605 9.88877 18.4941 10.1348 18.7402C10.3809 18.9862 10.7145 19.1246 11.0625 19.125H18.9375C19.2855 19.1246 19.6191 18.9862 19.8652 18.7402C20.1112 18.4941 20.2496 18.1605 20.25 17.8125V12.1875C20.2496 11.8395 20.1112 11.5059 19.8652 11.2598C19.6191 11.0138 19.2855 10.8754 18.9375 10.875ZM18.6052 13.046L15.2302 15.671C15.1643 15.7222 15.0834 15.75 15 15.75C14.9166 15.75 14.8357 15.7222 14.7698 15.671L11.3948 13.046C11.3552 13.0161 11.3219 12.9785 11.2969 12.9356C11.2718 12.8927 11.2556 12.8452 11.2491 12.796C11.2426 12.7467 11.2459 12.6966 11.2589 12.6487C11.2719 12.6007 11.2943 12.5558 11.3248 12.5166C11.3553 12.4774 11.3933 12.4446 11.4366 12.4202C11.4798 12.3957 11.5275 12.3802 11.5769 12.3743C11.6262 12.3685 11.6762 12.3726 11.724 12.3862C11.7718 12.3999 11.8164 12.4229 11.8552 12.454L15 14.8999L18.1448 12.454C18.2235 12.3946 18.3223 12.3686 18.42 12.3815C18.5177 12.3944 18.6064 12.4453 18.6669 12.5231C18.7274 12.6009 18.7548 12.6993 18.7432 12.7972C18.7317 12.8951 18.6821 12.9844 18.6052 13.046Z" fill="#008CD9"/>
</svg>
