<svg width="15" height="15" viewBox="0 0 15 15" fill="none" xmlns="http://www.w3.org/2000/svg">
<path d="M5.85938 7.26562C6.04586 7.26562 6.2247 7.19155 6.35656 7.05968C6.48842 6.92782 6.5625 6.74898 6.5625 6.5625C6.5625 6.37602 6.48842 6.19718 6.35656 6.06532C6.2247 5.93345 6.04586 5.85938 5.85938 5.85938C5.67289 5.85938 5.49405 5.93345 5.36219 6.06532C5.23033 6.19718 5.15625 6.37602 5.15625 6.5625C5.15625 6.74898 5.23033 6.92782 5.36219 7.05968C5.49405 7.19155 5.67289 7.26562 5.85938 7.26562ZM5.7525 9.06281C5.71163 9.0163 5.66194 8.97834 5.60631 8.95114C5.55068 8.92393 5.49022 8.90802 5.42841 8.90432C5.36659 8.90062 5.30466 8.9092 5.24618 8.92957C5.18771 8.94994 5.13385 8.98169 5.08771 9.023C5.04158 9.0643 5.00408 9.11434 4.9774 9.17021C4.95071 9.22609 4.93536 9.2867 4.93223 9.34855C4.9291 9.41039 4.93826 9.47224 4.95917 9.53053C4.98008 9.58881 5.01233 9.64237 5.05406 9.68812C5.36166 10.0325 5.73859 10.3079 6.16013 10.4963C6.58167 10.6847 7.03828 10.7818 7.5 10.7812C7.96172 10.7818 8.41833 10.6847 8.83987 10.4963C9.26141 10.3079 9.63834 10.0325 9.94594 9.68812C10.0275 9.5953 10.0691 9.47403 10.0617 9.35068C10.0543 9.22734 9.99855 9.1119 9.90649 9.02947C9.81443 8.94705 9.69354 8.90431 9.57014 8.91056C9.44673 8.9168 9.33077 8.97152 9.2475 9.06281C9.02787 9.30899 8.7586 9.50586 8.4574 9.64046C8.1562 9.77506 7.82991 9.84434 7.5 9.84375C6.80625 9.84375 6.18281 9.54281 5.7525 9.06281ZM9.84375 6.5625C9.84375 6.74898 9.76967 6.92782 9.63781 7.05968C9.50595 7.19155 9.32711 7.26562 9.14062 7.26562C8.95414 7.26562 8.7753 7.19155 8.64344 7.05968C8.51158 6.92782 8.4375 6.74898 8.4375 6.5625C8.4375 6.37602 8.51158 6.19718 8.64344 6.06532C8.7753 5.93345 8.95414 5.85938 9.14062 5.85938C9.32711 5.85938 9.50595 5.93345 9.63781 6.06532C9.76967 6.19718 9.84375 6.37602 9.84375 6.5625ZM13.125 7.5C13.125 6.76131 12.9795 6.02986 12.6968 5.34741C12.4141 4.66495 11.9998 4.04485 11.4775 3.52252C10.9551 3.00019 10.3351 2.58586 9.65259 2.30318C8.97014 2.02049 8.23869 1.875 7.5 1.875C6.76131 1.875 6.02986 2.02049 5.34741 2.30318C4.66495 2.58586 4.04485 3.00019 3.52252 3.52252C3.00019 4.04485 2.58586 4.66495 2.30318 5.34741C2.02049 6.02986 1.875 6.76131 1.875 7.5C1.875 8.99184 2.46763 10.4226 3.52252 11.4775C4.57742 12.5324 6.00816 13.125 7.5 13.125C8.99184 13.125 10.4226 12.5324 11.4775 11.4775C12.5324 10.4226 13.125 8.99184 13.125 7.5ZM2.8125 7.5C2.8125 6.2568 3.30636 5.06451 4.18544 4.18544C5.06451 3.30636 6.2568 2.8125 7.5 2.8125C8.7432 2.8125 9.93549 3.30636 10.8146 4.18544C11.6936 5.06451 12.1875 6.2568 12.1875 7.5C12.1875 8.7432 11.6936 9.93549 10.8146 10.8146C9.93549 11.6936 8.7432 12.1875 7.5 12.1875C6.2568 12.1875 5.06451 11.6936 4.18544 10.8146C3.30636 9.93549 2.8125 8.7432 2.8125 7.5Z" fill="#008CD9"/>
</svg>
