<svg width="14" height="15" viewBox="0 0 14 15" fill="none" xmlns="http://www.w3.org/2000/svg">
<path fill-rule="evenodd" clip-rule="evenodd" d="M6.17105 0.820539C6.40803 0.612792 6.6997 0.5 6.99993 0.5C7.30017 0.5 7.59184 0.612792 7.82882 0.820539L13.4879 5.78013C13.9962 6.22665 13.7154 7.14326 13.0728 7.14326H12.3998V13.2287C12.3998 13.6321 12.2576 14.0191 12.0044 14.3044C11.7513 14.5897 11.4079 14.75 11.0499 14.75H2.95002C2.59198 14.75 2.24861 14.5897 1.99544 14.3044C1.74227 14.0191 1.60004 13.6321 1.60004 13.2287V7.14326H0.927081C0.283819 7.14326 0.00437501 6.22589 0.511965 5.78089L6.17105 0.820539Z" fill="#7F7F7F"/>
</svg>
