<svg width="17" height="17" viewBox="0 0 17 17" fill="none" xmlns="http://www.w3.org/2000/svg">
<path fill-rule="evenodd" clip-rule="evenodd" d="M2.4581 8.12465C2.35861 8.22426 2.30273 8.35929 2.30273 8.50007C2.30273 8.64085 2.35861 8.77587 2.4581 8.87548L6.7081 13.1255C6.75674 13.1777 6.81539 13.2195 6.88055 13.2486C6.94572 13.2776 7.01607 13.2932 7.0874 13.2945C7.15873 13.2957 7.22958 13.2826 7.29573 13.2559C7.36188 13.2292 7.42197 13.1894 7.47242 13.139C7.52287 13.0885 7.56263 13.0284 7.58935 12.9623C7.61607 12.8961 7.6292 12.8253 7.62794 12.7539C7.62668 12.6826 7.61106 12.6123 7.58203 12.5471C7.55299 12.4819 7.51113 12.4233 7.45893 12.3747L4.1156 9.03132L14.1669 9.03132C14.3077 9.03132 14.4429 8.97535 14.5425 8.87572C14.6421 8.77609 14.6981 8.64096 14.6981 8.50007C14.6981 8.35917 14.6421 8.22405 14.5425 8.12442C14.4429 8.02479 14.3077 7.96882 14.1669 7.96882L4.1156 7.96882L7.45893 4.62548C7.51113 4.57685 7.55299 4.5182 7.58203 4.45303C7.61106 4.38787 7.62668 4.31752 7.62794 4.24619C7.62919 4.17486 7.61607 4.104 7.58935 4.03785C7.56263 3.9717 7.52287 3.91161 7.47242 3.86117C7.42197 3.81072 7.36188 3.77095 7.29573 3.74423C7.22958 3.71751 7.15873 3.70439 7.0874 3.70565C7.01607 3.70691 6.94572 3.72252 6.88055 3.75156C6.81539 3.78059 6.75674 3.82246 6.7081 3.87465L2.4581 8.12465Z" fill="#008CD9"/>
</svg>
