<svg width="17" height="17" viewBox="0 0 17 17" fill="none" xmlns="http://www.w3.org/2000/svg">
<path fill-rule="evenodd" clip-rule="evenodd" d="M14.5419 8.12465C14.6414 8.22426 14.6973 8.35929 14.6973 8.50007C14.6973 8.64085 14.6414 8.77587 14.5419 8.87548L10.2919 13.1255C10.2433 13.1777 10.1846 13.2195 10.1194 13.2486C10.0543 13.2776 9.98393 13.2932 9.9126 13.2945C9.84127 13.2957 9.77042 13.2826 9.70427 13.2559C9.63812 13.2292 9.57803 13.1894 9.52758 13.139C9.47713 13.0885 9.43737 13.0284 9.41065 12.9623C9.38393 12.8961 9.3708 12.8253 9.37206 12.7539C9.37332 12.6826 9.38894 12.6123 9.41797 12.5471C9.44701 12.4819 9.48887 12.4233 9.54107 12.3747L12.8844 9.03132L2.83315 9.03132C2.69225 9.03132 2.55713 8.97535 2.4575 8.87572C2.35787 8.77609 2.3019 8.64096 2.3019 8.50007C2.3019 8.35917 2.35787 8.22405 2.4575 8.12442C2.55713 8.02479 2.69225 7.96882 2.83315 7.96882L12.8844 7.96882L9.54107 4.62548C9.48887 4.57685 9.44701 4.5182 9.41797 4.45303C9.38894 4.38787 9.37332 4.31752 9.37206 4.24619C9.37081 4.17486 9.38393 4.104 9.41065 4.03785C9.43737 3.9717 9.47713 3.91161 9.52758 3.86117C9.57803 3.81072 9.63812 3.77095 9.70427 3.74423C9.77042 3.71751 9.84127 3.70439 9.9126 3.70565C9.98393 3.70691 10.0543 3.72252 10.1194 3.75156C10.1846 3.78059 10.2433 3.82246 10.2919 3.87465L14.5419 8.12465Z" fill="white"/>
</svg>
