<svg width="15" height="15" viewBox="0 0 15 15" fill="none" xmlns="http://www.w3.org/2000/svg">
<path d="M3.45059 10.4799C3.53424 10.5195 3.62488 10.5422 3.71733 10.5467C3.80977 10.5512 3.90219 10.5374 3.9893 10.5061C4.0764 10.4748 4.15646 10.4266 4.22489 10.3643C4.29333 10.302 4.34878 10.2268 4.38809 10.143L5.29922 8.20293H9.70078L10.6137 10.143C10.6931 10.3117 10.8363 10.442 11.0118 10.5052C11.1873 10.5684 11.3806 10.5593 11.5494 10.4799C11.7182 10.4005 11.8485 10.2573 11.9117 10.0818C11.9749 9.90631 11.9657 9.71291 11.8863 9.54414L8.13633 1.57539C8.07955 1.4546 7.98956 1.35246 7.87687 1.28092C7.76419 1.20938 7.63347 1.17139 7.5 1.17139C7.36653 1.17139 7.23581 1.20938 7.12313 1.28092C7.01044 1.35246 6.92045 1.4546 6.86367 1.57539L3.11367 9.54414C3.07434 9.62771 3.05185 9.7182 3.04749 9.81045C3.04313 9.90271 3.05699 9.99491 3.08828 10.0818C3.11957 10.1687 3.16767 10.2486 3.22983 10.3169C3.292 10.3852 3.36701 10.4406 3.45059 10.4799ZM7.5 3.52598L9.03926 6.79668H5.96074L7.5 3.52598ZM13.3594 12.6561C13.3594 12.8425 13.2853 13.0214 13.1534 13.1532C13.0216 13.2851 12.8427 13.3592 12.6562 13.3592H2.34375C2.15727 13.3592 1.97843 13.2851 1.84657 13.1532C1.7147 13.0214 1.64062 12.8425 1.64062 12.6561C1.64062 12.4696 1.7147 12.2907 1.84657 12.1589C1.97843 12.027 2.15727 11.9529 2.34375 11.9529H12.6562C12.8427 11.9529 13.0216 12.027 13.1534 12.1589C13.2853 12.2907 13.3594 12.4696 13.3594 12.6561Z" fill="#008CD9"/>
</svg>
