<svg width="33" height="33" viewBox="0 0 33 33" fill="none" xmlns="http://www.w3.org/2000/svg">
<circle cx="16.5" cy="16.5" r="16" transform="matrix(-1 0 0 1 33 0)" fill="white" stroke="#E5E5E5"/>
<path fill-rule="evenodd" clip-rule="evenodd" d="M11.8796 16.2129C11.8035 16.2891 11.7607 16.3923 11.7607 16.5C11.7607 16.6077 11.8035 16.7109 11.8796 16.7871L15.1296 20.0371C15.1667 20.077 15.2116 20.109 15.2614 20.1312C15.3113 20.1534 15.3651 20.1654 15.4196 20.1663C15.4741 20.1673 15.5283 20.1573 15.5789 20.1368C15.6295 20.1164 15.6755 20.086 15.714 20.0474C15.7526 20.0088 15.783 19.9629 15.8035 19.9123C15.8239 19.8617 15.8339 19.8075 15.833 19.753C15.832 19.6984 15.8201 19.6446 15.7978 19.5948C15.7756 19.545 15.7436 19.5001 15.7037 19.4629L13.1471 16.9063L20.8333 16.9063C20.941 16.9063 21.0444 16.8635 21.1206 16.7873C21.1967 16.7111 21.2396 16.6077 21.2396 16.5C21.2396 16.3923 21.1967 16.2889 21.1206 16.2127C21.0444 16.1366 20.941 16.0938 20.8333 16.0938L13.1471 16.0938L15.7037 13.5371C15.7436 13.4999 15.7756 13.455 15.7978 13.4052C15.8201 13.3554 15.832 13.3016 15.833 13.247C15.8339 13.1925 15.8239 13.1383 15.8035 13.0877C15.783 13.0371 15.7526 12.9912 15.714 12.9526C15.6755 12.914 15.6295 12.8836 15.5789 12.8632C15.5283 12.8428 15.4741 12.8327 15.4196 12.8337C15.3651 12.8346 15.3113 12.8466 15.2614 12.8688C15.2116 12.891 15.1667 12.923 15.1296 12.9629L11.8796 16.2129Z" fill="#7F7F7F"/>
</svg>
