<svg width="31" height="30" viewBox="0 0 31 30" fill="none" xmlns="http://www.w3.org/2000/svg">
<path d="M26.75 15C26.75 15.2486 26.6512 15.4871 26.4754 15.6629C26.2996 15.8387 26.0611 15.9375 25.8125 15.9375H16.4375V25.3125C16.4375 25.5611 16.3387 25.7996 16.1629 25.9754C15.9871 26.1512 15.7486 26.25 15.5 26.25C15.2514 26.25 15.0129 26.1512 14.8371 25.9754C14.6613 25.7996 14.5625 25.5611 14.5625 25.3125V15.9375H5.1875C4.93886 15.9375 4.7004 15.8387 4.52459 15.6629C4.34877 15.4871 4.25 15.2486 4.25 15C4.25 14.7514 4.34877 14.5129 4.52459 14.3371C4.7004 14.1613 4.93886 14.0625 5.1875 14.0625H14.5625V4.6875C14.5625 4.43886 14.6613 4.2004 14.8371 4.02459C15.0129 3.84877 15.2514 3.75 15.5 3.75C15.7486 3.75 15.9871 3.84877 16.1629 4.02459C16.3387 4.2004 16.4375 4.43886 16.4375 4.6875V14.0625H25.8125C26.0611 14.0625 26.2996 14.1613 26.4754 14.3371C26.6512 14.5129 26.75 14.7514 26.75 15Z" fill="#008CD9"/>
</svg>
