<svg width="62" height="62" viewBox="0 0 62 62" fill="none" xmlns="http://www.w3.org/2000/svg">
<circle cx="31" cy="31" r="30.0606" transform="matrix(1.19249e-08 -1 -1 -1.19249e-08 62 62)" fill="white" stroke="#E5E5E5" stroke-width="1.87879"/>
<path fill-rule="evenodd" clip-rule="evenodd" d="M31.5397 22.3189C31.3966 22.176 31.2026 22.0957 31.0003 22.0957C30.7981 22.0957 30.6041 22.176 30.4609 22.3189L24.3549 28.425C24.2799 28.4949 24.2197 28.5791 24.178 28.6727C24.1363 28.7664 24.1139 28.8674 24.1121 28.9699C24.1103 29.0724 24.1291 29.1742 24.1675 29.2692C24.2059 29.3643 24.263 29.4506 24.3355 29.5231C24.408 29.5956 24.4943 29.6527 24.5894 29.6911C24.6844 29.7295 24.7862 29.7483 24.8887 29.7465C24.9912 29.7447 25.0922 29.7223 25.1859 29.6806C25.2795 29.6389 25.3637 29.5787 25.4336 29.5037L30.2371 24.7003L30.2371 39.1411C30.2371 39.3435 30.3175 39.5377 30.4606 39.6808C30.6037 39.824 30.7979 39.9044 31.0003 39.9044C31.2027 39.9044 31.3969 39.824 31.54 39.6808C31.6832 39.5377 31.7636 39.3435 31.7636 39.1411L31.7636 24.7003L36.567 29.5037C36.6369 29.5787 36.7211 29.6389 36.8148 29.6806C36.9084 29.7223 37.0095 29.7447 37.1119 29.7465C37.2144 29.7483 37.3162 29.7295 37.4113 29.6911C37.5063 29.6527 37.5926 29.5956 37.6651 29.5231C37.7376 29.4506 37.7947 29.3643 37.8331 29.2692C37.8715 29.1742 37.8904 29.0724 37.8886 28.9699C37.8867 28.8674 37.8643 28.7664 37.8226 28.6727C37.7809 28.5791 37.7207 28.4949 37.6457 28.425L31.5397 22.3189Z" fill="#7F7F7F"/>
</svg>
