<svg width="35" height="35" viewBox="0 0 35 35" fill="none" xmlns="http://www.w3.org/2000/svg">
<circle cx="17.5" cy="17.5" r="17.5" fill="#008CD9"/>
<path fill-rule="evenodd" clip-rule="evenodd" d="M24.9264 17.4987C24.9264 17.3081 24.8507 17.1253 24.7159 16.9905C24.5811 16.8557 24.3983 16.7799 24.2077 16.7799H10.791C10.6004 16.7799 10.4176 16.8557 10.2828 16.9905C10.148 17.1253 10.0723 17.3081 10.0723 17.4987C10.0723 17.6893 10.148 17.8721 10.2828 18.0069C10.4176 18.1417 10.6004 18.2174 10.791 18.2174H24.2077C24.3983 18.2174 24.5811 18.1417 24.7159 18.0069C24.8507 17.8721 24.9264 17.6893 24.9264 17.4987ZM24.9264 12.707C24.9264 12.5164 24.8507 12.3336 24.7159 12.1988C24.5811 12.064 24.3983 11.9883 24.2077 11.9883H10.791C10.6004 11.9883 10.4176 12.064 10.2828 12.1988C10.148 12.3336 10.0723 12.5164 10.0723 12.707C10.0723 12.8977 10.148 13.0805 10.2828 13.2153C10.4176 13.3501 10.6004 13.4258 10.791 13.4258H24.2077C24.3983 13.4258 24.5811 13.3501 24.7159 13.2153C24.8507 13.0805 24.9264 12.8977 24.9264 12.707ZM24.9264 22.2904C24.9264 22.0997 24.8507 21.9169 24.7159 21.7821C24.5811 21.6473 24.3983 21.5716 24.2077 21.5716H10.791C10.6004 21.5716 10.4176 21.6473 10.2828 21.7821C10.148 21.9169 10.0723 22.0997 10.0723 22.2904C10.0723 22.481 10.148 22.6638 10.2828 22.7986C10.4176 22.9334 10.6004 23.0091 10.791 23.0091H24.2077C24.3983 23.0091 24.5811 22.9334 24.7159 22.7986C24.8507 22.6638 24.9264 22.481 24.9264 22.2904Z" fill="white"/>
</svg>
