<svg width="30" height="29" viewBox="0 0 30 29" fill="none" xmlns="http://www.w3.org/2000/svg">
<path d="M16.0821 14.4999L20.5771 10.0049C20.6481 9.93388 20.7045 9.84956 20.7429 9.75676C20.7813 9.66396 20.8011 9.5645 20.8011 9.46405C20.8011 9.36361 20.7813 9.26415 20.7429 9.17135C20.7045 9.07855 20.6481 8.99423 20.5771 8.9232C20.5061 8.85218 20.4217 8.79584 20.3289 8.7574C20.2361 8.71896 20.1367 8.69918 20.0362 8.69918C19.9358 8.69918 19.8363 8.71896 19.7435 8.7574C19.6507 8.79584 19.5664 8.85218 19.4954 8.9232L15.0004 13.4182L10.5054 8.9232C10.4344 8.85218 10.35 8.79584 10.2572 8.7574C10.1644 8.71896 10.065 8.69918 9.96454 8.69918C9.8641 8.69918 9.76463 8.71896 9.67183 8.7574C9.57904 8.79584 9.49472 8.85218 9.42369 8.9232C9.35266 8.99423 9.29632 9.07855 9.25789 9.17135C9.21945 9.26415 9.19966 9.36361 9.19966 9.46405C9.19966 9.5645 9.21945 9.66396 9.25789 9.75676C9.29632 9.84956 9.35266 9.93388 9.42369 10.0049L13.9187 14.4999L9.42369 18.9949C9.35266 19.0659 9.29632 19.1502 9.25789 19.243C9.21945 19.3358 9.19966 19.4353 9.19966 19.5358C9.19966 19.6362 9.21945 19.7357 9.25789 19.8285C9.29632 19.9213 9.35266 20.0056 9.42369 20.0766C9.49472 20.1476 9.57904 20.204 9.67183 20.2424C9.76463 20.2808 9.8641 20.3006 9.96454 20.3006C10.065 20.3006 10.1644 20.2808 10.2572 20.2424C10.35 20.204 10.4344 20.1476 10.5054 20.0766L15.0004 15.5816L19.4954 20.0766C19.5664 20.1476 19.6507 20.204 19.7435 20.2424C19.8363 20.2808 19.9358 20.3006 20.0362 20.3006C20.1367 20.3006 20.2361 20.2808 20.3289 20.2424C20.4217 20.204 20.5061 20.1476 20.5771 20.0766C20.6481 20.0056 20.7045 19.9213 20.7429 19.8285C20.7813 19.7357 20.8011 19.6362 20.8011 19.5358C20.8011 19.4353 20.7813 19.3358 20.7429 19.243C20.7045 19.1502 20.6481 19.0659 20.5771 18.9949L16.0821 14.4999ZM15.0004 26.0999C11.9239 26.0999 8.97337 24.8778 6.79795 22.7023C4.62253 20.5269 3.40039 17.5764 3.40039 14.4999C3.40039 11.4234 4.62253 8.47289 6.79795 6.29746C8.97337 4.12204 11.9239 2.8999 15.0004 2.8999C18.0769 2.8999 21.0274 4.12204 23.2028 6.29746C25.3783 8.47289 26.6004 11.4234 26.6004 14.4999C26.6004 17.5764 25.3783 20.5269 23.2028 22.7023C21.0274 24.8778 18.0769 26.0999 15.0004 26.0999Z" fill="white" fill-opacity="0.5"/>
</svg>
