<svg width="36" height="36" viewBox="0 0 36 36" fill="none" xmlns="http://www.w3.org/2000/svg">
<path d="M32.3996 18.0001C32.3996 21.8192 30.8825 25.4819 28.1819 28.1824C25.4814 30.883 21.8187 32.4001 17.9996 32.4001C14.1805 32.4001 10.5178 30.883 7.81727 28.1824C5.11675 25.4819 3.59961 21.8192 3.59961 18.0001C3.59961 14.181 5.11675 10.5183 7.81727 7.81776C10.5178 5.11724 14.1805 3.6001 17.9996 3.6001C21.8187 3.6001 25.4814 5.11724 28.1819 7.81776C30.8825 10.5183 32.3996 14.181 32.3996 18.0001ZM10.7996 18.0001C10.7996 18.2388 10.8944 18.4677 11.0632 18.6365C11.232 18.8053 11.4609 18.9001 11.6996 18.9001H17.0996V24.3001C17.0996 24.5388 17.1944 24.7677 17.3632 24.9365C17.532 25.1053 17.7609 25.2001 17.9996 25.2001C18.2383 25.2001 18.4672 25.1053 18.636 24.9365C18.8048 24.7677 18.8996 24.5388 18.8996 24.3001V18.9001H24.2996C24.5383 18.9001 24.7672 18.8053 24.936 18.6365C25.1048 18.4677 25.1996 18.2388 25.1996 18.0001C25.1996 17.7614 25.1048 17.5325 24.936 17.3637C24.7672 17.1949 24.5383 17.1001 24.2996 17.1001H18.8996V11.7001C18.8996 11.4614 18.8048 11.2325 18.636 11.0637C18.4672 10.8949 18.2383 10.8001 17.9996 10.8001C17.7609 10.8001 17.532 10.8949 17.3632 11.0637C17.1944 11.2325 17.0996 11.4614 17.0996 11.7001V17.1001H11.6996C11.4609 17.1001 11.232 17.1949 11.0632 17.3637C10.8944 17.5325 10.7996 17.7614 10.7996 18.0001Z" fill="#008CD9"/>
</svg>
