<svg width="36" height="37" viewBox="0 0 36 37" fill="none" xmlns="http://www.w3.org/2000/svg">
<g opacity="0.1" filter="url(#filter0_d_47_3289)">
<circle cx="18" cy="17.5" r="9" fill="#E10000"/>
</g>
<path d="M22.2504 19.8473L18.8344 13.9149C18.749 13.7695 18.6272 13.649 18.4809 13.5653C18.3346 13.4815 18.169 13.4375 18.0004 13.4375C17.8319 13.4375 17.6662 13.4815 17.5199 13.5653C17.3737 13.649 17.2518 13.7695 17.1664 13.9149L13.7504 19.8473C13.6683 19.9879 13.625 20.1478 13.625 20.3106C13.625 20.4734 13.6683 20.6333 13.7504 20.7739C13.8347 20.9201 13.9563 21.0412 14.1029 21.1249C14.2495 21.2086 14.4156 21.2518 14.5844 21.25H21.4164C21.5851 21.2516 21.7511 21.2084 21.8975 21.1247C22.0439 21.041 22.1654 20.92 22.2496 20.7739C22.3319 20.6333 22.3753 20.4735 22.3754 20.3107C22.3756 20.1479 22.3324 19.9879 22.2504 19.8473ZM17.6879 16.5625C17.6879 16.4796 17.7208 16.4002 17.7794 16.3416C17.8381 16.2829 17.9175 16.25 18.0004 16.25C18.0833 16.25 18.1628 16.2829 18.2214 16.3416C18.28 16.4002 18.3129 16.4796 18.3129 16.5625V18.125C18.3129 18.2079 18.28 18.2874 18.2214 18.346C18.1628 18.4046 18.0833 18.4375 18.0004 18.4375C17.9175 18.4375 17.8381 18.4046 17.7794 18.346C17.7208 18.2874 17.6879 18.2079 17.6879 18.125V16.5625ZM18.0004 20C17.9077 20 17.8171 19.9725 17.74 19.921C17.6629 19.8695 17.6028 19.7963 17.5674 19.7107C17.5319 19.625 17.5226 19.5308 17.5407 19.4398C17.5588 19.3489 17.6034 19.2654 17.669 19.1998C17.7345 19.1343 17.818 19.0896 17.909 19.0715C17.9999 19.0534 18.0941 19.0627 18.1798 19.0982C18.2655 19.1337 18.3387 19.1938 18.3902 19.2709C18.4417 19.3479 18.4692 19.4386 18.4692 19.5313C18.4692 19.6556 18.4198 19.7748 18.3319 19.8627C18.244 19.9506 18.1247 20 18.0004 20Z" fill="#E10000"/>
<defs>
<filter id="filter0_d_47_3289" x="0.257142" y="0.785714" width="35.4857" height="35.4857" filterUnits="userSpaceOnUse" color-interpolation-filters="sRGB">
<feFlood flood-opacity="0" result="BackgroundImageFix"/>
<feColorMatrix in="SourceAlpha" type="matrix" values="0 0 0 0 0 0 0 0 0 0 0 0 0 0 0 0 0 0 127 0" result="hardAlpha"/>
<feOffset dy="1.02857"/>
<feGaussianBlur stdDeviation="4.37143"/>
<feComposite in2="hardAlpha" operator="out"/>
<feColorMatrix type="matrix" values="0 0 0 0 0.882353 0 0 0 0 0 0 0 0 0 0 0 0 0 0.6 0"/>
<feBlend mode="normal" in2="BackgroundImageFix" result="effect1_dropShadow_47_3289"/>
<feBlend mode="normal" in="SourceGraphic" in2="effect1_dropShadow_47_3289" result="shape"/>
</filter>
</defs>
</svg>
